  0
SECTION
  2
HEADER
  9
$ACADVER
  1
AC1014
  9
$HANDSEED
  5
FFFF
  9
$MEASUREMENT
 70
     1
  0
ENDSEC
  0
SECTION
  2
TABLES
  0
TABLE
  2
VPORT
  5
8
330
0
100
AcDbSymbolTable
 70
     4
  0
VPORT
  5
2E
330
8
100
AcDbSymbolTableRecord
100
AcDbViewportTableRecord
  2
*ACTIVE
 70
     0
 10
0.0
 20
0.0
 11
1.0
 21
1.0
 12
210.0
 22
148.5
 13
0.0
 23
0.0
 14
10.0
 24
10.0
 15
10.0
 25
10.0
 16
0.0
 26
0.0
 36
1.0
 17
0.0
 27
0.0
 37
0.0
 40
341.0
 41
1.24
 42
50.0
 43
0.0
 44
0.0
 50
0.0
 51
0.0
 71
     0
 72
   100
 73
     1
 74
     3
 75
     0
 76
     0
 77
     0
 78
     0
  0
ENDTAB
  0
TABLE
  2
LTYPE
  5
5
330
0
100
AcDbSymbolTable
 70
     1
  0
LTYPE
  5
14
330
5
100
AcDbSymbolTableRecord
100
AcDbLinetypeTableRecord
  2
BYBLOCK
 70
     0
  3

 72
    65
 73
     0
 40
0.0
  0
LTYPE
  5
15
330
5
100
AcDbSymbolTableRecord
100
AcDbLinetypeTableRecord
  2
BYLAYER
 70
     0
  3

 72
    65
 73
     0
 40
0.0
  0
LTYPE
  5
16
330
5
100
AcDbSymbolTableRecord
100
AcDbLinetypeTableRecord
  2
CONTINUOUS
 70
     0
  3
Solid line
 72
    65
 73
     0
 40
0.0
  0
ENDTAB
  0
TABLE
  2
LAYER
  5
2
100
AcDbSymbolTable
 70
2
  0
LAYER
  5
50
100
AcDbSymbolTableRecord
100
AcDbLayerTableRecord
  2
0
 70
0
  6
CONTINUOUS
  0
LAYER
  5
51
100
AcDbSymbolTableRecord
100
AcDbLayerTableRecord
  2
Layer_1
 70
0
  6
CONTINUOUS
  0
ENDTAB
  0
TABLE
  2
STYLE
  5
3
330
0
100
AcDbSymbolTable
 70
     1
  0
STYLE
  5
11
330
3
100
AcDbSymbolTableRecord
100
AcDbTextStyleTableRecord
  2
STANDARD
 70
     0
 40
0.0
 41
1.0
 50
0.0
 71
     0
 42
2.5
  3
txt
  4

  0
ENDTAB
  0
TABLE
  2
VIEW
  5
6
330
0
100
AcDbSymbolTable
 70
     0
  0
ENDTAB
  0
TABLE
  2
UCS
  5
7
330
0
100
AcDbSymbolTable
 70
     0
  0
ENDTAB
  0
TABLE
  2
APPID
  5
9
330
0
100
AcDbSymbolTable
 70
     2
  0
APPID
  5
12
330
9
100
AcDbSymbolTableRecord
100
AcDbRegAppTableRecord
  2
ACAD
 70
     0
  0
ENDTAB
  0
TABLE
  2
DIMSTYLE
  5
A
330
0
100
AcDbSymbolTable
 70
     1
  0
DIMSTYLE
105
27
330
A
100
AcDbSymbolTableRecord
100
AcDbDimStyleTableRecord
  2
ISO-25
 70
     0
  3

  4

  5

  6

  7

 40
1.0
 41
2.5
 42
0.625
 43
3.75
 44
1.25
 45
0.0
 46
0.0
 47
0.0
 48
0.0
140
2.5
141
2.5
142
0.0
143
0.03937007874016
144
1.0
145
0.0
146
1.0
147
0.625
 71
     0
 72
     0
 73
     0
 74
     0
 75
     0
 76
     0
 77
     1
 78
     8
170
     0
171
     3
172
     1
173
     0
174
     0
175
     0
176
     0
177
     0
178
     0
270
     2
271
     2
272
     2
273
     2
274
     3
340
11
275
     0
280
     0
281
     0
282
     0
283
     0
284
     8
285
     0
286
     0
287
     3
288
     0
  0
ENDTAB
  0
TABLE
  2
BLOCK_RECORD
  5
1
330
0
100
AcDbSymbolTable
 70
     1
  0
BLOCK_RECORD
  5
1F
330
1
100
AcDbSymbolTableRecord
100
AcDbBlockTableRecord
  2
*MODEL_SPACE
  0
BLOCK_RECORD
  5
1B
330
1
100
AcDbSymbolTableRecord
100
AcDbBlockTableRecord
  2
*PAPER_SPACE
  0
ENDTAB
  0
ENDSEC
  0
SECTION
  2
BLOCKS
  0
BLOCK
  5
20
330
1F
100
AcDbEntity
  8
0
100
AcDbBlockBegin
  2
*MODEL_SPACE
 70
     0
 10
0.0
 20
0.0
 30
0.0
  3
*MODEL_SPACE
  1

  0
ENDBLK
  5
21
330
1F
100
AcDbEntity
  8
0
100
AcDbBlockEnd
  0
BLOCK
  5
1C
330
1B
100
AcDbEntity
 67
     1
  8
0
100
AcDbBlockBegin
  2
*PAPER_SPACE
  1

  0
ENDBLK
  5
1D
330
1B
100
AcDbEntity
 67
     1
  8
0
100
AcDbBlockEnd
  0
ENDSEC
  0
SECTION
  2
ENTITIES
  0
LWPOLYLINE
  5
100
100
AcDbEntity
  8
Layer_1
 62
7
100
AcDbPolyline
 90
257
 70
0
 10
-2.663472
 20
53.415764
 30
0.0
 10
-3.896598
 20
53.397927
 30
0.0
 10
-5.139098
 20
53.366211
 30
0.0
 10
-6.391734
 20
53.320091
 30
0.0
 10
-7.655268
 20
53.259026
 30
0.0
 10
-8.930460
 20
53.182490
 30
0.0
 10
-10.218072
 20
53.089947
 30
0.0
 10
-11.518865
 20
52.980865
 30
0.0
 10
-12.833601
 20
52.854709
 30
0.0
 10
-14.163041
 20
52.710945
 30
0.0
 10
-15.507947
 20
52.549040
 30
0.0
 10
-16.869080
 20
52.368463
 30
0.0
 10
-18.247200
 20
52.168680
 30
0.0
 10
-19.643070
 20
51.949157
 30
0.0
 10
-21.057451
 20
51.709358
 30
0.0
 10
-22.491105
 20
51.448754
 30
0.0
 10
-23.944792
 20
51.166811
 30
0.0
 10
-25.526316
 20
50.517353
 30
0.0
 10
-27.043517
 20
49.685006
 30
0.0
 10
-28.493435
 20
48.680710
 30
0.0
 10
-29.873112
 20
47.515403
 30
0.0
 10
-31.179584
 20
46.200030
 30
0.0
 10
-32.409892
 20
44.745528
 30
0.0
 10
-33.561076
 20
43.162839
 30
0.0
 10
-34.630177
 20
41.462902
 30
0.0
 10
-35.614235
 20
39.656660
 30
0.0
 10
-36.510285
 20
37.755055
 30
0.0
 10
-37.315371
 20
35.769024
 30
0.0
 10
-38.026529
 20
33.709510
 30
0.0
 10
-38.640806
 20
31.587450
 30
0.0
 10
-39.155232
 20
29.413788
 30
0.0
 10
-39.566853
 20
27.199467
 30
0.0
 10
-39.872708
 20
24.955422
 30
0.0
 10
-39.954166
 20
21.543666
 30
0.0
 10
-40.023328
 20
18.251747
 30
0.0
 10
-40.081945
 20
15.062548
 30
0.0
 10
-40.131780
 20
11.958948
 30
0.0
 10
-40.174585
 20
8.923817
 30
0.0
 10
-40.212117
 20
5.940051
 30
0.0
 10
-40.246139
 20
2.990547
 30
0.0
 10
-40.278403
 20
0.058117
 30
0.0
 10
-40.310666
 20
-2.874285
 30
0.0
 10
-40.344685
 20
-5.823790
 30
0.0
 10
-40.382221
 20
-8.807556
 30
0.0
 10
-40.425026
 20
-11.842687
 30
0.0
 10
-40.474858
 20
-14.946284
 30
0.0
 10
-40.533478
 20
-18.135480
 30
0.0
 10
-40.602637
 20
-21.427405
 30
0.0
 10
-40.684097
 20
-24.839161
 30
0.0
 10
-40.603667
 20
-26.177741
 30
0.0
 10
-40.510150
 20
-27.519764
 30
0.0
 10
-40.398404
 20
-28.861223
 30
0.0
 10
-40.263304
 20
-30.198138
 30
0.0
 10
-40.099711
 20
-31.526473
 30
0.0
 10
-39.902494
 20
-32.842249
 30
0.0
 10
-39.666517
 20
-34.141431
 30
0.0
 10
-39.386645
 20
-35.420039
 30
0.0
 10
-39.057747
 20
-36.674037
 30
0.0
 10
-38.674689
 20
-37.899446
 30
0.0
 10
-38.232334
 20
-39.092258
 30
0.0
 10
-37.725553
 20
-40.248466
 30
0.0
 10
-37.149207
 20
-41.364062
 30
0.0
 10
-36.498166
 20
-42.435067
 30
0.0
 10
-35.767295
 20
-43.457417
 30
0.0
 10
-34.951458
 20
-44.427133
 30
0.0
 10
-33.934468
 20
-45.468477
 30
0.0
 10
-32.867137
 20
-46.423065
 30
0.0
 10
-31.750220
 20
-47.295132
 30
0.0
 10
-30.584473
 20
-48.088938
 30
0.0
 10
-29.370649
 20
-48.808746
 30
0.0
 10
-28.109507
 20
-49.458845
 30
0.0
 10
-26.801798
 20
-50.043440
 30
0.0
 10
-25.448279
 20
-50.566821
 30
0.0
 10
-24.049705
 20
-51.033250
 30
0.0
 10
-22.606832
 20
-51.446987
 30
0.0
 10
-21.120415
 20
-51.812296
 30
0.0
 10
-19.591209
 20
-52.133437
 30
0.0
 10
-18.019968
 20
-52.414643
 30
0.0
 10
-16.407450
 20
-52.660204
 30
0.0
 10
-14.754408
 20
-52.874355
 30
0.0
 10
-13.061597
 20
-53.061383
 30
0.0
 10
-12.233390
 20
-53.136906
 30
0.0
 10
-11.407447
 20
-53.195269
 30
0.0
 10
-10.583699
 20
-53.238195
 30
0.0
 10
-9.762080
 20
-53.267405
 30
0.0
 10
-8.942522
 20
-53.284621
 30
0.0
 10
-8.124957
 20
-53.291677
 30
0.0
 10
-7.309318
 20
-53.288854
 30
0.0
 10
-6.495537
 20
-53.280388
 30
0.0
 10
-5.683547
 20
-53.266841
 30
0.0
 10
-4.873281
 20
-53.249908
 30
0.0
 10
-4.064671
 20
-53.231281
 30
0.0
 10
-3.257649
 20
-53.212937
 30
0.0
 10
-2.452148
 20
-53.196285
 30
0.0
 10
-1.648101
 20
-53.183303
 30
0.0
 10
-0.845440
 20
-53.175683
 30
0.0
 10
-0.044097
 20
-53.175683
 30
0.0
 10
-0.033650
 20
-53.175711
 30
0.0
 10
-0.023193
 20
-53.175740
 30
0.0
 10
-0.012726
 20
-53.175768
 30
0.0
 10
-0.002251
 20
-53.175768
 30
0.0
 10
0.008229
 20
-53.175768
 30
0.0
 10
0.018714
 20
-53.175740
 30
0.0
 10
0.029202
 20
-53.175740
 30
0.0
 10
0.039692
 20
-53.175711
 30
0.0
 10
0.050181
 20
-53.175683
 30
0.0
 10
0.060669
 20
-53.175683
 30
0.0
 10
0.071153
 20
-53.175655
 30
0.0
 10
0.081633
 20
-53.175655
 30
0.0
 10
0.092106
 20
-53.175655
 30
0.0
 10
0.102571
 20
-53.175655
 30
0.0
 10
0.113027
 20
-53.175655
 30
0.0
 10
0.123472
 20
-53.175683
 30
0.0
 10
0.924815
 20
-53.175683
 30
0.0
 10
1.727476
 20
-53.183585
 30
0.0
 10
2.531523
 20
-53.196568
 30
0.0
 10
3.337024
 20
-53.213219
 30
0.0
 10
4.144046
 20
-53.231563
 30
0.0
 10
4.952657
 20
-53.250190
 30
0.0
 10
5.762923
 20
-53.267123
 30
0.0
 10
6.574912
 20
-53.280670
 30
0.0
 10
7.388693
 20
-53.289137
 30
0.0
 10
8.204332
 20
-53.291959
 30
0.0
 10
9.021897
 20
-53.284903
 30
0.0
 10
9.841455
 20
-53.267688
 30
0.0
 10
10.663075
 20
-53.238478
 30
0.0
 10
11.486822
 20
-53.195580
 30
0.0
 10
12.312765
 20
-53.137216
 30
0.0
 10
13.140972
 20
-53.061665
 30
0.0
 10
14.833782
 20
-52.874637
 30
0.0
 10
16.486824
 20
-52.660458
 30
0.0
 10
18.099343
 20
-52.414925
 30
0.0
 10
19.670583
 20
-52.133691
 30
0.0
 10
21.199789
 20
-51.812578
 30
0.0
 10
22.686207
 20
-51.447270
 30
0.0
 10
24.129080
 20
-51.033532
 30
0.0
 10
25.527654
 20
-50.567103
 30
0.0
 10
26.881172
 20
-50.043722
 30
0.0
 10
28.188882
 20
-49.459099
 30
0.0
 10
29.450024
 20
-48.809028
 30
0.0
 10
30.663848
 20
-48.089220
 30
0.0
 10
31.829598
 20
-47.295414
 30
0.0
 10
32.946512
 20
-46.423347
 30
0.0
 10
34.013843
 20
-45.468759
 30
0.0
 10
35.030833
 20
-44.427415
 30
0.0
 10
35.846670
 20
-43.457700
 30
0.0
 10
36.577541
 20
-42.435321
 30
0.0
 10
37.228582
 20
-41.364345
 30
0.0
 10
37.804925
 20
-40.248748
 30
0.0
 10
38.311709
 20
-39.092540
 30
0.0
 10
38.754061
 20
-37.899728
 30
0.0
 10
39.137121
 20
-36.674319
 30
0.0
 10
39.466020
 20
-35.420321
 30
0.0
 10
39.745889
 20
-34.141713
 30
0.0
 10
39.981869
 20
-32.842532
 30
0.0
 10
40.179086
 20
-31.526755
 30
0.0
 10
40.342679
 20
-30.198420
 30
0.0
 10
40.477779
 20
-28.861505
 30
0.0
 10
40.589525
 20
-27.520046
 30
0.0
 10
40.683042
 20
-26.178023
 30
0.0
 10
40.763472
 20
-24.839443
 30
0.0
 10
40.682012
 20
-21.427687
 30
0.0
 10
40.612853
 20
-18.135762
 30
0.0
 10
40.554233
 20
-14.946567
 30
0.0
 10
40.504401
 20
-11.842969
 30
0.0
 10
40.461596
 20
-8.807838
 30
0.0
 10
40.424060
 20
-5.824072
 30
0.0
 10
40.390041
 20
-2.874567
 30
0.0
 10
40.357778
 20
0.057834
 30
0.0
 10
40.325514
 20
2.990264
 30
0.0
 10
40.291492
 20
5.939769
 30
0.0
 10
40.253959
 20
8.923535
 30
0.0
 10
40.211155
 20
11.958666
 30
0.0
 10
40.161320
 20
15.062266
 30
0.0
 10
40.102702
 20
18.251465
 30
0.0
 10
40.033541
 20
21.543384
 30
0.0
 10
39.952083
 20
24.955140
 30
0.0
 10
39.646228
 20
27.199185
 30
0.0
 10
39.234607
 20
29.413506
 30
0.0
 10
38.720180
 20
31.587168
 30
0.0
 10
38.105904
 20
33.709228
 30
0.0
 10
37.394746
 20
35.768741
 30
0.0
 10
36.589660
 20
37.754773
 30
0.0
 10
35.693610
 20
39.656378
 30
0.0
 10
34.709552
 20
41.462620
 30
0.0
 10
33.640451
 20
43.162557
 30
0.0
 10
32.489267
 20
44.745245
 30
0.0
 10
31.258959
 20
46.199748
 30
0.0
 10
29.952487
 20
47.515121
 30
0.0
 10
28.572810
 20
48.680428
 30
0.0
 10
27.122892
 20
49.684724
 30
0.0
 10
25.605691
 20
50.517071
 30
0.0
 10
24.024167
 20
51.166529
 30
0.0
 10
22.376926
 20
51.484644
 30
0.0
 10
20.755339
 20
51.775342
 30
0.0
 10
19.158295
 20
52.039406
 30
0.0
 10
17.584679
 20
52.277624
 30
0.0
 10
16.033378
 20
52.490783
 30
0.0
 10
14.503279
 20
52.679672
 30
0.0
 10
12.993269
 20
52.845074
 30
0.0
 10
11.502234
 20
52.987777
 30
0.0
 10
10.029061
 20
53.108568
 30
0.0
 10
8.572637
 20
53.208235
 30
0.0
 10
7.131848
 20
53.287564
 30
0.0
 10
5.705581
 20
53.347339
 30
0.0
 10
4.292724
 20
53.388352
 30
0.0
 10
2.892162
 20
53.411381
 30
0.0
 10
1.502783
 20
53.417223
 30
0.0
 10
0.123472
 20
53.406668
 30
0.0
 10
0.113004
 20
53.406798
 30
0.0
 10
0.102535
 20
53.406877
 30
0.0
 10
0.092065
 20
53.406911
 30
0.0
 10
0.081594
 20
53.406905
 30
0.0
 10
0.071122
 20
53.406874
 30
0.0
 10
0.060650
 20
53.406817
 30
0.0
 10
0.050178
 20
53.406747
 30
0.0
 10
0.039704
 20
53.406668
 30
0.0
 10
0.029231
 20
53.406589
 30
0.0
 10
0.018756
 20
53.406518
 30
0.0
 10
0.008282
 20
53.406462
 30
0.0
 10
-0.002194
 20
53.406431
 30
0.0
 10
-0.012669
 20
53.406425
 30
0.0
 10
-0.023145
 20
53.406459
 30
0.0
 10
-0.033621
 20
53.406538
 30
0.0
 10
-0.044097
 20
53.406668
 30
0.0
 10
-0.206818
 20
53.408643
 30
0.0
 10
-0.369655
 20
53.410619
 30
0.0
 10
-0.532611
 20
53.412312
 30
0.0
 10
-0.695689
 20
53.414006
 30
0.0
 10
-0.858894
 20
53.415417
 30
0.0
 10
-1.022228
 20
53.416546
 30
0.0
 10
-1.185695
 20
53.417392
 30
0.0
 10
-1.349300
 20
53.418239
 30
0.0
 10
-1.531081
 20
53.418803
 30
0.0
 10
-1.738772
 20
53.419086
 30
0.0
 10
-1.956917
 20
53.419131
 30
0.0
 10
-2.170060
 20
53.418916
 30
0.0
 10
-2.362743
 20
53.418352
 30
0.0
 10
-2.519510
 20
53.417505
 30
0.0
 10
-2.624906
 20
53.416376
 30
0.0
 10
-2.663472
 20
53.414965
 30
0.0
 10
-2.663472
 20
53.414965
 30
0.0
 10
-2.663472
 20
53.414968
 30
0.0
 10
-2.663472
 20
53.414968
 30
0.0
 10
-2.663472
 20
53.414968
 30
0.0
 10
-2.663472
 20
53.414971
 30
0.0
 10
-2.663472
 20
53.414971
 30
0.0
 10
-2.663472
 20
53.414971
 30
0.0
 10
-2.663472
 20
53.414971
 30
0.0
 10
-2.663472
 20
53.414974
 30
0.0
 10
-2.663472
 20
53.414974
 30
0.0
 10
-2.663472
 20
53.414974
 30
0.0
 10
-2.663472
 20
53.414976
 30
0.0
 10
-2.663472
 20
53.414976
 30
0.0
 10
-2.663472
 20
53.414976
 30
0.0
 10
-2.663472
 20
53.414979
 30
0.0
 10
-2.663472
 20
53.415764
 30
0.0
  0
ENDSEC
  0
SECTION
  2
OBJECTS
  0
DICTIONARY
  5
C
330
0
100
AcDbDictionary
  3
ACAD_GROUP
350
D
  3
ACAD_MLINESTYLE
350
17
  0
DICTIONARY
  5
D
330
C
100
AcDbDictionary
  0
DICTIONARY
  5
1A
330
C
100
AcDbDictionary
  0
DICTIONARY
  5
17
330
C
100
AcDbDictionary
  3
STANDARD
350
18
  0
DICTIONARY
  5
19
330
C
100
AcDbDictionary
  0
ENDSEC
  0
EOF
